# xmcd
#
# Track frame offsets:
#	150
#	21231
#	47735
#	89843
#	112466
#	136283
#	157868
#	179222
#	198136
#	225052
#	247580
#	268652
#
# Disc length: 4142 seconds
#
# Revision: 0
# Processed by: cddbd v1.5.2PL0 Copyright (c) Steve Scherf et al.
# Submitted via: EasyCDDAExtractor 15.3.0.1
#
DISCID=9e102c0c
DTITLE=TMPS066 - Que Toi
DYEAR=2008
DGENRE=Tinh Ca Que Huong
TTITLE0=Minh Tuyet - Que Toi
TTITLE1=Truong Vu - Tuong Tu Ao Trang
TTITLE2=Ha Vy - LK: Neo Dau Ben Que and Cau Ho Ben Bo Hien Luong
TTITLE3=Tuong Nguyen and Luu My Linh - Nhu Mot Con Me
TTITLE4=My Huyen - Con Sao Tinh Que
TTITLE5=Quoc Dung - Tinh Dai Kho
TTITLE6=Hoang Lan and Manh Dinh - Cho Vua Long Em
TTITLE7=Quoc Dung - Tinh Khoc
TTITLE8=Phi Nhung - Tam Su Nang Buram
TTITLE9=Tuong Nguyen - Hoa Su Nha Nang
TTITLE10=Karaoke - Que Toi
TTITLE11=Karaoke - LK: Neo Dau Ben Que and Cau Ho Ben Bo Hien Luong
EXTD=
EXTT0=
EXTT1=
EXTT2=
EXTT3=
EXTT4=
EXTT5=
EXTT6=
EXTT7=
EXTT8=
EXTT9=
EXTT10=
EXTT11=
PLAYORDER=
